<mxfile host="app.diagrams.net" modified="2024-02-08T18:33:03.801Z" agent="Mozilla/5.0 (Macintosh; Intel Mac OS X 10_15_7) AppleWebKit/605.1.15 (KHTML, like Gecko) Version/16.6 Safari/605.1.15" etag="0etS88D7kY39GMiCW_S5" version="23.1.2" type="google">
  <diagram name="Page-1" id="oIQOXE18vCD9VbXPKTGb">
    <mxGraphModel grid="1" page="1" gridSize="10" guides="1" tooltips="1" connect="1" arrows="1" fold="1" pageScale="1" pageWidth="850" pageHeight="1100" math="0" shadow="0">
      <root>
        <mxCell id="0" />
        <mxCell id="1" parent="0" />
        <mxCell id="KnLX_sLPv7J-z8Uy2KMH-1" value="" style="shape=image;verticalLabelPosition=bottom;labelBackgroundColor=default;verticalAlign=top;aspect=fixed;imageAspect=0;image=data:image/png,iVBORw0KGgoAAAANSUhEUgAAA+gAAAJYCAYAAADxHswlAAAAOXRFWHRTb2Z0d2FyZQBNYXRwbG90bGliIHZlcnNpb24zLjguMiwgaHR0cHM6Ly9tYXRwbG90bGliLm9yZy8g+/7EAAAACXBIWXMAAA9hAAAPYQGoP6dpAACC30lEQVR4nOzdeVxU9f7H8feA7Ii4ghpqKrlvaRLWTXODsswyNbNc8tqmpnHrmpVZt262aZpaZqXZ72aWZVpuiVt5lTTFJU1NzS0F3FJCBAY4vz/OZXQEFE08s7yej8c85nDmO2c+M1/GevP9nu+xGYZhCAAAAAAAWMrH6gIAAAAAAAABHQAAAAAAl0BABwAAAADABRDQAQAAAABwAQR0AAAAAABcAAEdAAAAAAAXQEAHAAAAAMAFENABAAAAAHABBHQAAAAAAFwAAR0AAAAAABdAQAcAAAAAwAUQ0AEAAAAAcAEEdAAAAAAAXAABHQAAAAAAF0BABwAAAADABRDQAQAAAABwAQR0AAAAAABcAAEdAAAAAAAXQEAHAAAAAMAFENABAAAAAHABBHQAAAAAAFwAAR0AAAAAABdAQAcAAAAAwAUQ0AEAAAAAcAEEdAAAAAAAXAABHQAAAAAAF0BABwAAAADABRDQAQAAAABwAQR0AAAAAABcAAEdAAAAAAAXQEAHAAAAAMAFENABAAAAAHABBHQAAAAAAFwAAR0AAAAAABdAQAcAAAAAwAUQ0AEAAAAAcAEEdAAAAAAAXAABHQAAAAAAF0BABwAAAADABRDQAQAAAABwAQR0AAAAAABcAAEdAAAAAAAXQEAHAAAAAMAFENABAAAAAHABBHQAAAAAAFwAAR0AAAAAABdAQAcAAAAAwAUQ0AEAAAAAcAEEdAAAAAAAXAABHQAAAAAAF0BABwAAAADABRDQAQAAAABwAQR0AAAAAABcAAEdAAAAAAAXQEAHAAAAAMAFENABAAAAAHABBHQAAAAAAFwAAR0AAAAAABdAQAcAAAAAwAUQ0AEAAAAAcAEEdAAAAAAAXAABHQAAAAAAF0BABwAAAADABRDQAQAAAABwAQR0AAAAAABcAAEdAAAAAAAXQEAHAAAAAMAFENABAAAAAHABBHQAAAAAAFwAAR0AAAAAABdQxuoCcHXl5+fr8OHDKlu2rGw2m9XlAAAAALCIYRj6888/Va1aNfn4MHbrCgjoXubw4cOKioqyugwAAAAALuLgwYO65pprrC4DIqB7nbJly0oyv4RhYWEWV+Ma7Ha7lixZos6dO8vPz8/qclAM+sl90FfugX5yD/ST+6Cv3AP95Cw9PV1RUVGOjADrEdC9TMG09rCwMAL6/9jtdgUHByssLIx/qF0Y/eQ+6Cv3QD+5B/rJfdBX7oF+KhqnvroOTjQAAAAAAMAFENABAAAAAHABBHQAAAAAAFwA56CjSHl5ebLb7VaXcVXY7XaVKVNGWVlZysvLs7ocy/j7+3N5DQAAAMBCBHQ4MQxDqampOnnypNWlXDWGYSgyMlIHDx706gUyfHx8dO2118rf39/qUgAAAACvRECHk4JwXqVKFQUHB3tFYM3Pz1dGRoZCQ0O9dgQ5Pz9fhw8fVkpKimrUqOEV/Q4AAAC4GgI6HPLy8hzhvGLFilaXc9Xk5+crJydHgYGBXhvQJaly5co6fPiwcnNzuewIAAAAYAHvTSMopOCc8+DgYIsrgRUKprZ783n4AAAAgJUI6CiE6c3eiX4HAAAArEVABwAAAADABRDQAQAAAABwAQR0eIT+/fvLZrPJZrPJ399fdevW1b/+9S/l5uZq5cqVjsfOv6Wmpqp27doqX768fH19i2zTv39/q98eAAAAAC/AKu7wGPHx8Zo+fbqys7O1cOFCDR48WH5+foqNjZUk7dy5U2FhYU7PqVKlitauXauTJ0+qbNmy+vHHH9W9e3entkFBQVf9vQAAAADwPgR0eIyAgABFRkZKkh577DF9/fXX+uabbxwBvUqVKgoPDy/0vMqVKysgIEBhYWGqUKHCBdsCAAAAQGkhoOOCDEPKzLz6rxscLP3VRcWDgoJ0/PjxK1MQAAAAAJQyAjouKDNTCg29+q+bkSGFhFzecw3D0LJly/Tdd99p6NChjv3XXHONU7uaNWtq27Ztf6VMAAAAALhiCOjwGPPnz1doaKjsdrvy8/N1//3368UXX9RPP/0kSVq1apXKli3raO/n52dVqQAAALhKsrLM+zJlzNmhgCsjoOOCgoPN0WwrXvdS3XrrrXrvvffk7++vatWqqUwZ51/va6+9lvPKAQAAPNjJk1JysrR+vfTTT+b9vn3ntvCTj8+d8vOzqUwZM7T7+sqxff7tQo/ZbFJubvE3m828+fiYt4Jtm0267jrp00+t+Yzg2gjouCCb7fKnml9tISEhqlu3rtVlAAAA4CpIS5M2bzZvGzeaYXzXros/Lz/fR9nZUnZ26ddYHLvduteGayOgw2scOXJEWQVznP6nYsWK8vX1tagiAACAqy8jwwyyv/9uDsb4+hZ9u9CCvb6+kr+/FBBg3p97K3OBhHGhKeaGYQbXnJzCt+xs6bffzgbyzZvNgF6Ua6+VWrU6e2vWTPLzM0e1z5yxa8mS5brllvby8fErNOqdl1f0aHhR+/PzzeMWN/IumW0Mw7w/d/ucsy4BJwR0eI169eoV2peUlKTWrVtbUA0AAHA3hiGlp5vh7NygWRAsT570V1ra2XOdC8JYwbaPz9kQ6+d3NsxezpVrCo5Z8NoFI8JZWWe3s7PNELtzp/Trr2fvDx26cp+JlWw2KTpaatpUat78bCCvWLH459jtUoUKWapRw+wDwNUQ0P+CyZMn680331RqaqqaNWumiRMnXjDszZ49W6NGjdK+ffsUHR2t119/Xbfffrvj8RdffFGzZs3SwYMH5e/vr5YtW+rf//63YmJiCh0rOztbMTEx2rx5szZu3KjmzZuXxlt0Gx9//HGxj7Vr107GBf5cm5+fX+K2AADA8505Y44wnx9sd+40z3Eump+k2y7r9QqC+rmh+0K3K6FyZalmTTPk5uUVfSuOYZh/pChqpPtK8PUtPDLv5ydVq2aOhhfcGjd2n1MxgZIioF+mzz//XAkJCZoyZYpiYmI0fvx4xcXFaefOnapSpUqh9mvWrFHv3r01ZswY3XHHHZo5c6a6deum5ORkNW7cWJJ03XXXadKkSapdu7bOnDmjt99+W507d9bu3btVuXJlp+P985//VLVq1bR58+ar8n4BAAAuRUaGtGmTtGGDtGWLGXrz8s5O9S24nbuvqG3JDK9+fkXfzp0+fP404qJuBce1282asrLM27nbp0//tfdesDjY+bf8fDPYnu9KhtuAgLO3wECpfHmpXj1zUbKC++uuM/dfaQWj+QULpBU4f4bAhWYMnDs9HPBGBPTLNG7cOA0aNEgDBgyQJE2ZMkULFizQtGnT9MwzzxRqP2HCBMXHx+vpp5+WJL388stKTEzUpEmTNGXKFEnS/fffX+g1PvroI23ZskUdOnRw7F+0aJGWLFmir776SosWLSqttwgAAEqRYUgHD5rTnoODzZFAf/9Ln+5cEPrOPU82P9959emC7XOPbRhnR0rPf25xAfpCj506ZS7UtWGDeduxw70vaXV+sC3YrlPHDL6S8+eZm2vXwoULdfvtt1/wUq4FIfbcc60Lfi4u2F/s5ud3dsT5cqbLXyk229kRbwCXh4B+GXJycrRhwwaNHDnSsc/Hx0cdO3ZUUlJSkc9JSkpSQkKC0764uDjNnTu32NeYOnWqypUrp2bNmjn2p6WladCgQZo7d66CS3AtsuzsbGWfs0Rlenq6JMlut8t+3vKRdrtdhmEoPz/fadq3pyuY0l7w3r1Vfn6+DMOQ3W53yYXzCn5fz/+9heuhr9wD/WSN48elpUttSkz00dKlNh0+7JymfHwMhYScDeyG4auMjE7y9fVVXp6h3NyzI5Tm7dLSmM1myNe3IFSXfpKrVs1QixbmrXz5s5ebOnsz5ONzdkEyX185fi64PzfQFrx/u93m2Hf+Mc+9lJWvr1HkYz4+ZqgNCjLDtnlvKCDA3A4LM89jLi7sFjX9+1K+U6UVZIsanYcz/u1zxufgegjol+HYsWPKy8tTRESE0/6IiAjt2LGjyOekpqYW2T41NdVp3/z583XfffcpMzNTVatWVWJioipVqiTJDJD9+/fXo48+qlatWmmf80UdizRmzBi99NJLhfYvWbKkUMAvU6aMIiMjlZGRoZwrNc/Kjfz5559Wl2CpnJwcnTlzRj/88INyXfi/8ImJiVaXgBKir9wD/VRyZxf9sskwbMrPtzmC7oV+Pn48SJs2VdHGjVW0e3e4DONs6vP1zf/ftZR9JJnP/fNP6ex/kmySLv4H+ZK/B1uJQ5zNZshmMxwh2vy5IFQXPHZ2v79/nmrWTFedOidVp84p1alzUuXLX5nrWAUEXJHDFOlKX26L75R7oJ9MmZmZVpeA8xDQXcytt96qTZs26dixY/rggw/Us2dPrV27VlWqVNHEiRP1559/Oo3cX8zIkSOdRu7T09MVFRWlzp07KywszKltVlaWDh48qNDQUAUWzN3yAoZh6M8//1TZsmVls3JemMWysrIUFBSkW265xSX73263KzExUZ06dbrg1EFYj75yD+7cT0eOmKtQZ2fbHKtWF9yys6XMzLMhNyNDysiwObYzMwumFduKXODq3Gnb599fqRHnRo0Mde6cr06dDN18s6HAQMluz1Nmpnnu89l7m3Jzc5WcvFZt2rRWUFAZx5R1Pz/nKeznTmMvGH0uavp6wb6C0emC9udvF0ydLp7tf7dz+Uqq9L+b93Hn75Q3oZ+cFcyuhesgoF+GSpUqydfXV2nnXXwxLS1NkZGRRT4nMjKyRO1DQkJUt25d1a1bVzfeeKOio6P10UcfaeTIkVq+fLmSkpIUcN6fkVu1aqU+ffpoxowZhV43ICCgUHtJ8vPzK/SPUl5enmw2m3x8fOTj41P8B+BhCqa1F7x3b+Xj4yObzVbk74YrcfX6cBZ95R7crZ+mT5cefti1p/IWTKEuCMply0rt2knx8VLnzlL16jaZYfYsPz9zWnul87Kt3W7ozz9P6oYbyrhVP3kzd/tOeSv6ycRn4HoI6Jeh4BJoy5YtU7du3SSZIW/ZsmUaMmRIkc+JjY3VsmXLNHz4cMe+xMRExcbGXvC18vPzHeeQv/POO3rllVccjx0+fFhxcXH6/PPPi7wUGwAAnmTWLGngQHOaeUSEeY52YKB5K1ixOiDADLplyzrfQkPN+5CQwpdvOvcyTmXKFD4Huqj74h67+MgzAADFI6BfpoSEBPXr10+tWrVS69atNX78eJ0+fdqxqnvfvn1VvXp1jRkzRpI0bNgwtW3bVmPHjlWXLl00a9YsrV+/XlOnTpUknT59Wv/+97/VtWtXVa1aVceOHdPkyZN16NAh9ejRQ5JUo0YNpxpCQ0MlSXXq1NE111xztd46AABX3bx50gMPmOH8kUek994jCAMAPI/3zuf9i3r16qW33npLL7zwgpo3b65NmzZp8eLFjoXgDhw4oJSUFEf7Nm3aaObMmZo6daqaNWumL7/8UnPnznVcA93X11c7duxQ9+7ddd111+nOO+/U8ePHtWrVKjVq1MiS9+hNXnvtNV1//fWOn/v37++YHVGcdu3aOc2IAACUjiVLpJ49zXOnH3xQevddwjkAwDMxgv4XDBkypNgp7StXriy0r0ePHo7R8PMFBgZqzpw5l/T6tWrVclwizJsdPXpUL7zwghYsWKC0tDSVL19ezZo10wsvvKCbbrrpso45YcKEv/zZfvzxx44ZFZK5vkC9evX03HPP6Z577vlLxwYAb7FqldStm7mAW/fu0rRp5nRyAAA8EQEdbq979+7KycnRjBkzVLt2baWlpWnZsmU6fvz4ZR+zXLlyV6S2sLAw7dy5U5J5Gbfp06erZ8+e2rZtm+rVq3dFXgMAPNW6dVKXLtKZM9Jtt0kzZ5rniAMA4Kn4GzTc2smTJ7Vq1Sq9/vrruvXWW1WzZk21bt1aI0eOVNeuXR3tDhw4oLvuukuhoaEKCwtTz549C62qf67zp7ifPn1affv2VWhoqKpWraqxY8eWqD6bzabIyEhFRkYqOjpar7zyinx8fLRlyxZHm+zsbD311FOqXr26QkJCFBMT4zQD4/jx4+rdu7eqV6+u4OBgNWnSRJ999pnT67Rr105Dhw7V8OHDVb58eUVEROiDDz5wrItQtmxZ1a1bV4sWLSpR3QBgtS1bzFXP//xTuvVW6auvzIXcAADwZAR0uLXQ0FCFhoZq7ty5jtXuz5efn6+77rpLJ06c0Pfff6/ExET99ttv6tWrV4lf5+mnn9b333+vefPmacmSJVq5cqWSk5Mvqda8vDzHpfDOPd99yJAhSkpK0qxZs7Rlyxb16NFD8fHx2rVrlyTz+uQtW7bUggULtHXrVj388MN68MEHtW7dOqfjz5gxQ5UqVdK6des0dOhQPfbYY+rRo4fatGmj5ORkde7cWQ8++KAyMzMvqW4AuJJyc6WTJ6WDB6Vt26Q1a6RFi8wV2t9/X3rjDem556SOHaU//pBiY6VvvpGCgqyuHACA0sdEMVyYYUhWBLrg4BKtAFSmTBl9/PHHGjRokKZMmaLrr79ebdu21X333aemTZtKkpYtW6aff/5Ze/fuVVRUlCTpk08+UaNGjfTTTz+pZcuWF3yNjIwMffTRR/rPf/6jDh06SDLDcElWzj916pRjtf0zZ87Iz89PU6dOVZ06dSSZI/vTp0/XgQMHVK1aNUnSU089pcWLF2v69Ol69dVXVb16dT311FOOYw4dOlTfffedvvjiC7Vu3dqxv1mzZnr++eclSSNHjtRrr72mSpUqadCgQZKkF154Qe+99562bNmiG2+88aK1A4BkBuoTJ8zbH38U3v7jD3MKena2lJVl3p97O33aHAX/808pI8NsW1ItWkgLF5qXSAMAwBsQ0HFhmZnW/J9RRoZ5sdoS6N69u7p06aJVq1bpxx9/1KJFi/TGG2/oww8/VP/+/bV9+3ZFRUU5wrkkNWzYUOHh4dq+fftFA/qePXuUk5PjdK35ChUqlOgc8rJlyzpG2jMzM7V06VI9+uijqlixou688079/PPPysvL03XXXef0vOzsbFWsWFGSOfL+6quv6osvvtChQ4eUk5Oj7OxsBQcHOz2n4A8SknlVgIoVK6pJkyaOfQVXGDhy5MhF6wbg+XJzpbS0YC1fbtP+/dLvv0tHj0pHjpj3BbcTJ8y/1V5pZcpIYWFSuXJF36pXlx5+WAoPv/KvDQCAqyKgwyMEBgaqU6dO6tSpk0aNGqW///3vGj16tPr3729pXT4+Pqpbt67j56ZNm2rJkiV6/fXXdeeddyojI0O+vr7asGGDfH19nZ5bMPL+5ptvasKECRo/fryaNGmikJAQDR8+XDk5OU7t/fz8nH622WxO+2z/m5GQn59/Rd8jANeVni799pt527PH+X7//jLKze1U4mOFh0sVKkjly5v3Bbfy5c1JTwEBRd+Cg6WyZc1baOjZ7YCA0nvfAAC4KwI6Liw42BzNtuJ1/4KGDRtq7ty5kqQGDRro4MGDOnjwoGMU/ZdfftHJkyfVsGHDix6rTp068vPz09q1a1WjRg1J0h9//KFff/1Vbdu2veTafH19deZ/czxbtGihvLw8HTlyRH/729+KbL969WrdddddeuCBBySZAfvXX38tUe0API9hSKdOScePS8eOmfcF20ePSvv2nQ3hx45d6Eg2+fnlqXZtH9Wta1ONGlKVKlLlyoVvFSuyejoAAFcD/7nFhdlsJZ5qboXjx4+rR48eeuihh9S0aVOVLVtW69ev1xtvvKG77rpLktSxY0c1adJEffr00fjx45Wbm6vHH39cbdu2VatWrS46ohwaGqqBAwfq6aefVsWKFVWlShU999xz8inBhXgNw1Bqaqok8xz0xMREfffdd3rhhRckSdddd5369Omjvn37auzYsWrRooWOHj2qZcuWqWnTpurSpYuio6P15Zdfas2aNSpfvrzGjRuntLQ0Ajrg5gzDPGc7I8M8T/vc+z/+kFJSpNTUwrcjR8zp6SVVubJUu7ZUp47zfVSUXZs2LdQdd9xeaAYOAACwBgEdbi00NFQxMTF6++23tWfPHtntdkVFRWnQoEF69tlnJZlTu+fNm6ehQ4fqlltukY+Pj+Lj4zVx4sQSv86bb76pjIwM3XnnnSpbtqz+8Y9/6NSpUxd9Xnp6uqpWrSpJCggIUM2aNfWvf/1LI0aMcLSZPn26XnnlFf3jH//QoUOHVKlSJd1444264447JEnPP/+8fvvtN8XFxSk4OFgPP/ywunXrVqLXB3B1GYZ5zva+fdL+/VJamnk7csS8nbudni79lTNOQkLMke1KlZzva9Y8G8Jr1zankxfFbjcvZQYAAFyHzTBKY+kXuKr09HSVK1dOp06dUlhYmNNjWVlZ2rt3r6699loFBgZaVOHVl5+fr/T0dIWFhZVoVNxTuXr/2+12LVy4ULffzmifq/PkvsrKMke2Dx0yb7//bobxc2+Xc1ZQUJB5fnZIiHlfrpxUtaoUGVn4FhFhhvG/+jX15H7yJPST+6Cv3AP95OxC2QDWYAQdAIBzHDtmXp+74LZ379lAfvx4yY5RtapUo4Z5HxFhnttdpYrzdni4GcaDg6Xz1ogEAABeioAOAPBKJ044B/GC28WuRBgYaF4CrOBWq5bzrUaNvz66DQAAvBMBHQDgsQzDDNx79hQO4ikpxT/v2mulRo3M23XXOQfy8HBz/UwAAIArjYAOAHBbZ86cXXTt0CFzOvr5t8zM4p9fo8bZIN6okdS4sdSggUtfvAIAAHgwAjoAwCUZhjnKvX27tGOHefv9d+fV0P/88+LHsdnMke+GDZ3DeMOGEuvhAAAAV0JARyEs7O+d6HdYJTfXnIK+fbv0yy9nw/iOHSUL4P7+5qJrkZHm1PRrrzUvL1awXaOGFBBQ+u8DAADgryKgw6HgUhOZmZkKCgqyuBpcbTk5OZIkX5aTRgn89JO5yFqjRubodEnOyc7Kkn799WwQL7j/9VfzmtxF8fU1r+ldv755q1Wr8KroYWGcEw4AADwDAR0Ovr6+Cg8P15H/LWEcHBwsmxf8X29+fr5ycnKUlZXltddBz8/P19GjRxUcHKwyZfhnAcXbt08aPlyaN+/svnLlnKeP16tn06+/huv4cZtTIP/tNyk/v+jjhoSYAbxBA/NYBYG8Th1zhBwAAMAb8H/icBIZGSlJjpDuDQzD0JkzZxQUFOQVf5Aojo+Pj2rUqOHVnwGKl5UlvfGGNGaMuV2mjBmed++WTp2SkpLMm6mMpLZFHic83AzgBUG8YDsqSvLSv48BAAA4ENDhxGazqWrVqqpSpYrsxc059TB2u10//PCDbrnlFsc0f2/k7+/vtTMIcGHz50vDhpkj4JJ0663SpElmuM7JMaeon3v5sq1bDR09mq2mTf3VqJGPUxiPiGA6OgAAQHEI6CiSr6+v15yL7Ovrq9zcXAUGBnp1QAfO99tvZjCfP9/8uXp1aexYqWfPsyHb39+8NFnjxmefZ7fnauHC73T77bfLz48/+gAAAJQUAR0AvNzJk+aK6edezmz7dnNl9fx8czp7QoI0apQUGmp1tQAAAJ6LgA4AXuToUXMF9nXrzFtysnlN8eJ06iS98465YBsAAABKFwEdADxUdra0YYO5eNu6dWYw37u36LbVq59dRb1gBfUGDaRq1a5uzQAAAN6MgA4AHuLUKWnNGum//5VWrTJDeXZ24Xb160utW0s33CC1amUu3hYWdvXrBQAAgDMCOgC4qePHpe+/l1asMAP5li2SYTi3qVJFatNGiokxQ3nLluZ1ywEAAOB6COgA4CZOnjwbyFesMAP5+erWlW6+Wfrb38z76GguawYAAOAuCOgAcJUcOWKujN6oUcmmlKenmyPjBYF848bCI+QNG5rXJW/b1gzkVauWTu0AAAAofQR0ALgKZs2SBg6UMjPNn2vXlpo1k5o3N2/NmkkVK0qrV58N5Bs2SHl5zse57jozkN96q9SunRQRcZXfCAAAAEoNAR0ASlFurjRihDRunPlzeLg5Vf2338zb119f+Pm1azsH8urVS7lgAAAAWIaADgCl5MgRqVcvaeVK8+eRI6WXXzYD+pYt0qZN5m3zZmnbNjPM16hxNpDfeqv5MwAAALwDAR0ASsHatdK990q//y6VLSvNmCHdfbf5WMWKZwN4gZwc6cQJc8o6i7oBAAB4Jx+rCwAAT/PBB9Itt5jhvH5983rkBeG8OP7+UmQk4RwAAMCbEdAB4Ao5cEAaMEB6+GFzRPzuu82R9Pr1ra4MAAAA7oCADgB/gWGYK6537y5de6308cfmKPirr0pffVWyy6kBAAAAEuegA8BlyciQ/vMfadIkc4G3Au3bS6NGmSuuAwAAAJeCgA4Al2DXLundd6Xp06VTp8x9ISFS377S4MFSo0bW1gcAAAD3RUAHgIvIz5cWL5YmTjTvC0RHm6G8Xz/z+uYAAADAX0FAB4BinDxpjpRPnizt2WPus9mk22+XhgyROneWfFjJAwAAAFcIAR0AzrNpkzRlivR//ydlZpr7wsOlhx6SHn9cqlPHyuoAAADgqQjoACDpxAlp5kxp2jRp48az+5s0kYYOle6/3zzXHAAAACgtBHQAXis/X1q2zAzlX38tZWeb+/39pW7dzPPL//Y3c1o7AAAAUNoI6AC8hmFI+/dLP/0krV0rzZ4tHThw9vFmzaSBA83R8ooVrasTAAAA3omADsBjHT9uBvGffpLWrTPvjx51bhMeLvXpY55ffv31lpQJAAAASJJYf/gvmDx5smrVqqXAwEDFxMRo3bp1F2w/e/Zs1a9fX4GBgWrSpIkWLlzo9PiLL76o+vXrKyQkROXLl1fHjh21du1ax+P79u3TwIEDde211yooKEh16tTR6NGjlZOTUyrvD3BXmzaZoTsiQurSRXrxRWnhQjOclykjtWwpPfqoNGuWlJIiTZpEOAcAAID1GEG/TJ9//rkSEhI0ZcoUxcTEaPz48YqLi9POnTtVpUqVQu3XrFmj3r17a8yYMbrjjjs0c+ZMdevWTcnJyWrcuLEk6brrrtOkSZNUu3ZtnTlzRm+//bY6d+6s3bt3q3LlytqxY4fy8/P1/vvvq27dutq6dasGDRqk06dP66233rraHwHgUgxDSkyU3nxTWrr07P569aTWraUbbjDvmzWTAgOtqxMAAAAoDgH9Mo0bN06DBg3SgAEDJElTpkzRggULNG3aND3zzDOF2k+YMEHx8fF6+umnJUkvv/yyEhMTNWnSJE2ZMkWSdP/99xd6jY8++khbtmxRhw4dFB8fr/j4eMfjtWvX1s6dO/Xee+8R0OG17Hbp88+lt96SNm829/n6Sj16SE89ZY6WAwAAAO6AgH4ZcnJytGHDBo0cOdKxz8fHRx07dlRSUlKRz0lKSlJCQoLTvri4OM2dO7fY15g6darKlSunZs2aFVvLqVOnVKFChWIfz87OVnbB0tSS0tPTJUl2u112u73Y53mTgs+Bz8O1nd9PWVnStGk+GjvWRwcPmsush4QYeuihfA0dmq9atQqeZ0W13o3vlHugn9wD/eQ+6Cv3QD8543NwPQT0y3Ds2DHl5eUpIiLCaX9ERIR27NhR5HNSU1OLbJ+amuq0b/78+brvvvuUmZmpqlWrKjExUZUqVSrymLt379bEiRMvOHo+ZswYvfTSS4X2L1myRMHBwcU+zxslJiZaXQJKYMGCZVqypKbmzInWiRNBkqTw8Cx16fKb4uP3qWxZu375RfrlF4sLBd8pN0E/uQf6yX3QV+6BfjJlZmZaXQLOQ0B3Mbfeeqs2bdqkY8eO6YMPPlDPnj21du3aQue1Hzp0SPHx8erRo4cGDRpU7PFGjhzpNHKfnp6uqKgode7cWWFhYaX2PtyJ3W5XYmKiOnXqJD8/P6vLQTHS0+165pk9WrCgkVJSzPUto6IM/fOf+erXz1eBgdGSoq0tEpL4TrkL+sk90E/ug75yD/STs4LZtXAdBPTLUKlSJfn6+iotLc1pf1pamiIjI4t8TmRkZInah4SEqG7duqpbt65uvPFGRUdH66OPPnKaTn/48GHdeuutatOmjaZOnXrBWgMCAhQQEFBov5+fH/8onYfPxDVlZUlTp0qvvVZGKSlNJElRUdJzz0n9+9sUEOArydfaIlEkvlPugX5yD/ST+6Cv3AP9ZOIzcD1cZu0y+Pv7q2XLllq2bJljX35+vpYtW6bY2NginxMbG+vUXjKn1hTX/tzjnnsO+aFDh9SuXTu1bNlS06dPl48PXQjP9uCD0rBhUkqKTZUrZ+rdd3O1e7f0yCNSEX97AgAAANwWI+iXKSEhQf369VOrVq3UunVrjR8/XqdPn3as6t63b19Vr15dY8aMkSQNGzZMbdu21dixY9WlSxfNmjVL69evd4yAnz59Wv/+97/VtWtXVa1aVceOHdPkyZN16NAh9ejRQ9LZcF6zZk299dZbOnr0qKOe4kbuAXe3dat5P2pUnpo2Xaq77rpN/LEXAAAAnoiAfpl69eqlo0eP6oUXXlBqaqqaN2+uxYsXOxaCO3DggNPodps2bTRz5kw9//zzevbZZxUdHa25c+c6roHu6+urHTt2aMaMGTp27JgqVqyoG264QatWrVKjRo0kmSPuu3fv1u7du3XNNdc41WMYxlV658DVlZFh3t9+u6G0NH7PAQAA4LkI6H/BkCFDNGTIkCIfW7lyZaF9PXr0cIyGny8wMFBz5sy54Ov1799f/fv3v9QyAbd2+rR5HxxMOAcAAIBn4wRmAC6tIKCHhFhbBwAAAFDaCOgAXFZurpSTY24T0AEAAODpCOgAXFbB6LlEQAcAAIDnI6ADcFkFAd3Hh0uqAQAAwPMR0AG4rIKAHhoq2WzW1gIAAACUNgI6AJfFAnEAAADwJgR0AC6r4BroBHQAAAB4AwI6AJfFCDoAAAC8CQEdgMsioAMAAMCbENABuCwCOgAAALwJAR2AyyKgAwAAwJsQ0AG4LAI6AAAAvAkBHYDLIqADAADAmxDQAbisgoAeGmptHQAAAMDVQEAH4LIYQQcAAIA3IaADcFkZGeY9AR0AAADegIAOwGUxgg4AAABvQkAH4LII6AAAAPAmBHQALouADgAAAG9CQAfgsgjoAAAA8CYEdAAui4AOAAAAb0JAB+CyuA46AAAAvAkBHYDLYgQdAAAA3oSADsBlEdABAADgTQjoAFxSbq6UnW1uE9ABAADgDQjoAFxSwei5REAHAACAdyCgA3BJBQHdx0cKCLC2FgAAAOBqIKADcEnnnn9us1lbCwAAAHA1ENABuCQWiAMAAIC3IaADcEkEdAAAAHgbAjoAl1QQ0ENDra0DAAAAuFoI6ABcEiPoAAAA8DYEdAAuKSPDvCegAwAAwFsQ0AG4JEbQAQAA4G0I6ABcEgEdAAAA3oaADsAlEdABAADgbQjoAFwSAR0AAADepozVBcBLGYaUmWl1FSa7Xb5ZWWYi9POzuhr8j/2kFCwp3E/SadFP7oS+cg/0k3ugn9wHfeUeXKmfgoMlm83aGuBybIZhGFYXUVruueeeS37OlClTVKVKlVKoxjWkp6erXLlyOnXqlMLCwqwr5PRpLnANAAAA75WRYflUQZfJBnDw6BH0uXPnqmfPngoKCipR+5kzZyojI8OjAzoAAAAAwDV5dECXpHfeeafEgfvLL78s5WrgEBx89kLXFrPb7fruu+8UFxcnP6unOsHhnnuk75ZIU96THnyQfnIn9JV7oJ/cA/3kPugr9+BS/RQcbO3rwyV5dEBfsWKFKlSoUOL2ixYtUvXq1UuxIjjYbJZP6XGw25UXGGjWY/U/1HA4niVlSgqoIClE9JM7oa/cA/3kHugn90FfuQf6CS7OowN627ZtL6n9zTffXEqVALhUrOIOAAAAb8Nl1gC4JAI6AAAAvI3HB3S73a5//vOfqlu3rlq3bq1p06Y5PZ6WliZfX9/LOvbkyZNVq1YtBQYGKiYmRuvWrbtg+9mzZ6t+/foKDAxUkyZNtHDhQqfHX3zxRdWvX18hISEqX768OnbsqLVr1zq1OXHihPr06aOwsDCFh4dr4MCBynCRc7mBK4mADgAAAG/j8QH93//+tz755BM9+uij6ty5sxISEvTII484tbmcK819/vnnSkhI0OjRo5WcnKxmzZopLi5OR44cKbL9mjVr1Lt3bw0cOFAbN25Ut27d1K1bN23dutXR5rrrrtOkSZP0888/67///a9q1aqlzp076+jRo442ffr00bZt25SYmKj58+frhx9+0MMPP3zJ9QOujoAOAAAAb+PxAf3TTz/Vhx9+qKeeekqvvPKK1q9fr+XLl2vAgAGOYG6z2S75uOPGjdOgQYM0YMAANWzYUFOmTFFwcHChEfoCEyZMUHx8vJ5++mk1aNBAL7/8sq6//npNmjTJ0eb+++9Xx44dVbt2bTVq1Ejjxo1Tenq6tmzZIknavn27Fi9erA8//FAxMTG6+eabNXHiRM2aNUuHDx++jE8HcF0EdAAAAHgbj14kTpIOHTqkxo0bO36uW7euVq5cqfbt2+vBBx/UG2+8ccnHzMnJ0YYNGzRy5EjHPh8fH3Xs2FFJSUlFPicpKUkJCQlO++Li4jR37txiX2Pq1KkqV66cmjVr5jhGeHi4WrVq5WjXsWNH+fj4aO3atbr77rsLHSc7O1vZ2dmOn9PT0yWZU//tdnvJ3rCHK/gc+DxcR16elJ1trqwaEGCX3U4/uRP6yj3QT+6BfnIf9JV7oJ+c8Tm4Ho8P6JGRkdqzZ49q1arl2Fe9enWtWLFCt956q/r373/Jxzx27Jjy8vIUERHhtD8iIkI7duwo8jmpqalFtk9NTXXaN3/+fN13333KzMxU1apVlZiYqEqVKjmOcf413cuUKaMKFSoUOk6BMWPG6KWXXiq0f8mSJQrm2otOEhMTrS4B/5OZWUZSF0nSqlWL5e+f73iMfnIf9JV7oJ/cA/3kPugr90A/mTIzM60uAefx+IDevn17zZw5Ux06dHDaX61aNS1fvlzt2rWzprBi3Hrrrdq0aZOOHTumDz74QD179tTatWsLBfOSGjlypNPIfXp6uqKiotS5c2eFhYVdqbLdmt1uV2Jiojp16iQ/rofpEgrO2PDxMXTXXfGy2egnd0JfuQf6yT3QT+6DvnIP9JOzgtm1cB0eH9BHjRpV7Kh29erV9f3331/yX9AqVaokX19fpaWlOe1PS0tTZGRkkc+JjIwsUfuQkBDVrVtXdevW1Y033qjo6Gh99NFHGjlypCIjIwstQpebm6sTJ04U+7oBAQEKCAgotN/Pz49/lM7DZ+I6cnLM+5AQm/z9nfuEfnIf9JV7oJ/cA/3kPugr90A/mfgMXI/HLxJXs2ZNxcXFFft4tWrV1K9fv0s6pr+/v1q2bKlly5Y59uXn52vZsmWKjY0t8jmxsbFO7SVzak1x7c89bsE55LGxsTp58qQ2bNjgeHz58uXKz89XTEzMJb0HwJWxQBwAAAC8kcePoBcwDOOyVmsvTkJCgvr166dWrVqpdevWGj9+vE6fPq0BAwZIkvr27avq1atrzJgxkqRhw4apbdu2Gjt2rLp06aJZs2Zp/fr1mjp1qiTp9OnT+ve//62uXbuqatWqOnbsmCZPnqxDhw6pR48ekqQGDRooPj5egwYN0pQpU2S32zVkyBDdd999qlat2hV7b4DVCOgAAADwRl4R0HNycnT//ffryy+/vGLH7NWrl44ePaoXXnhBqampat68uRYvXuxYCO7AgQPy8Tk7QaFNmzaaOXOmnn/+eT377LOKjo7W3LlzHSvM+/r6aseOHZoxY4aOHTumihUr6oYbbtCqVavUqFEjx3E+/fRTDRkyRB06dJCPj4+6d++ud95554q9L8AVENABAADgjTw+oGdkZOiuu+5S2bJlr/ixhwwZoiFDhhT52MqVKwvt69Gjh2M0/HyBgYGaM2fORV+zQoUKmjlz5iXVCbgbAjoAAAC8kUefg37s2DG1bdtWvr6+mj17ttXlACghAjoAAAC8kUcH9JtvvlkhISGaO3cuKxQCbqQgoIeGWlsHAAAAcDV5dEDfs2eP4uPjFRwcbHUpAC4BI+gAAADwRh59DvoXX3yhPn36qHLlyho0aJDV5QAooYwM856ADgAAAG/i0QH97rvv1oIFC3TPPfcoJCRE999/v9UlASgBRtABAADgjTx6irsk3XrrrVq6dKmefvppq0sBUEIEdAAAAHgjjw/oktSyZUutWLHC6jIAlBABHQAAAN7IKwK6JF133XVWlwCghAjoAAAA8EZeE9ABuA8COgAAALyRRy8Sd66srCxNnDhRK1as0JEjR5Sfn+/0eHJyskWVATgfAR0AAADeyGsC+sCBA7VkyRLde++9at26tWw2m9UlAShGQUAPDbW2DgAAAOBq8pqAPn/+fC1cuFA33XST1aUAuAiugw4AAABv5DXnoFevXl1ly5a1ugwAJcAUdwAAAHgjrwnoY8eO1YgRI7R//36rSwFwEQR0AAAAeCOvmeLeqlUrZWVlqXbt2goODpafn5/T4ydOnLCoMgDnI6ADAADAG3lNQO/du7cOHTqkV199VRERESwSB7iovDwpO9vcJqADAADAm3hNQF+zZo2SkpLUrFkzq0sBcAEFo+cSAR0AAADexWvOQa9fv77OnDljdRkALqIgoNtsUmCgtbUAAAAAV5PXBPTXXntN//jHP7Ry5UodP35c6enpTjcAruHca6BzJgoAAAC8iddMcY+Pj5ckdejQwWm/YRiy2WzKy8uzoiwA52GBOAAAAHgrrwnoy5cvZ2E4wA1kZJj3BHQAAAB4G48P6NOmTVPXrl3Vrl07q0sBUAKMoAMAAMBbefw56P/5z390zTXXqE2bNnr99de1fft2q0sCcAEEdAAAAHgrjw/oy5cvV0pKih5//HFt2LBBMTExio6O1j/+8Q/98MMPys/Pt7pEAOcgoAMAAMBbeXxAl6Ty5cvrgQce0BdffKFjx45p4sSJOnPmjPr06aMqVaqob9+++vLLL3X63AswA7AEAR0AAADeyisC+rn8/f0VHx+vd999VwcPHtTixYtVq1Ytvfzyyxo3bpzV5QFej4AOAAAAb+Xxi8RdTKtWrdSqVSv961//kt1ut7ocwOsR0AEAAOCtPD6g/+tf/7poG5vNplGjRsnPz+8qVATgQgoCemiotXUAAAAAV5vHB/Svv/662MdsNpt27typrKwsjRo16ipWBaA4XAcdAAAA3srjA/rGjRuL3L9p0yY988wz2rp1qwYNGnSVqwJQHKa4AwAAwFt53SJxe/fu1QMPPKAbbrhB5cqV07Zt2zRlyhSrywLwPwR0AAAAeCuvCejHjh3T0KFDVb9+faWkpGjNmjX6/PPPFR0dbXVpAM5BQAcAAIC38vgp7qdPn9Zbb72lcePGqW7duvr222/VuXNnq8sCUAwCOgAAALyVxwf0OnXq6M8//9TQoUPVu3dv2Ww2bdmypVC7pk2bWlAdgPMR0AEAAOCtPD6gHzlyRJL0xhtv6M0335RhGI7HbDabDMOQzWZTXl6eVSUCOAcBHQAAAN7K4wP63r17rS4BwCXgOugAAADwVh4f0GvWrGl1CQAuASPoAAAA8FYevYr7li1blJ+fX+L227ZtU25ubilWBOBiMjLMewI6AAAAvI1HB/QWLVro+PHjJW4fGxurAwcOlGJFAC4kL0/Kzja3CegAAADwNh49xd0wDI0aNUrBwcElap+Tk1PKFQG4kILp7RIBHQAAAN7HowP6Lbfcop07d5a4fWxsrIKCgkqxIgAXUhDQbTYpMNDaWgAAAICrzaMD+sqVK60uAcAlOHeBOJvN2loAAACAq82jz0EH4F5YwR0AAADejIAOwGUQ0AEAAODNCOh/weTJk1WrVi0FBgYqJiZG69atu2D72bNnq379+goMDFSTJk20cOFCx2N2u10jRoxQkyZNFBISomrVqqlv3746fPiw0zF+/fVX3XXXXapUqZLCwsJ08803a8WKFaXy/oCrrSCgh4ZaWwcAAABgBQL6Zfr888+VkJCg0aNHKzk5Wc2aNVNcXJyOHDlSZPs1a9aod+/eGjhwoDZu3Khu3bqpW7du2rp1qyQpMzNTycnJGjVqlJKTkzVnzhzt3LlTXbt2dTrOHXfcodzcXC1fvlwbNmxQs2bNdMcddyg1NbXU3zNQ2rgGOgAAALwZAf0yjRs3ToMGDdKAAQPUsGFDTZkyRcHBwZo2bVqR7SdMmKD4+Hg9/fTTatCggV5++WVdf/31mjRpkiSpXLlySkxMVM+ePVWvXj3deOONmjRpkjZs2OC4NvuxY8e0a9cuPfPMM2ratKmio6P12muvKTMz0xH0AXfGFHcAAAB4M49exf1c2dnZWrt2rfbv36/MzExVrlxZLVq00LXXXnvJx8rJydGGDRs0cuRIxz4fHx917NhRSUlJRT4nKSlJCQkJTvvi4uI0d+7cYl/n1KlTstlsCg8PlyRVrFhR9erV0yeffKLrr79eAQEBev/991WlShW1bNmyyGNkZ2crOzvb8XN6erokc0q93W4vydv1eAWfA5+H9dLTfST5KigoX3Z7ntNj9JP7oK/cA/3kHugn90FfuQf6yRmfg+vx+IC+evVqTZgwQd9++63sdrvKlSunoKAgnThxQtnZ2apdu7YefvhhPfrooypbtmyJjnns2DHl5eUpIiLCaX9ERIR27NhR5HNSU1OLbF/c1PSsrCyNGDFCvXv3VlhYmCTJZrNp6dKl6tatm8qWLSsfHx9VqVJFixcvVvny5Ys8zpgxY/TSSy8V2r9kyRIFBwdf9L16k8TERKtL8Hrr19eR1FinTh3SwoXJRbahn9wHfeUe6Cf3QD+5D/rKPdBPpszMTKtLwHk8OqB37dpVycnJuv/++7VkyRK1atVKQUFBjsd/++03rVq1Sp999pnGjRunTz75RJ06dbKwYpPdblfPnj1lGIbee+89x37DMDR48GBVqVJFq1atUlBQkD788EPdeeed+umnn1S1atVCxxo5cqTTyH16erqioqLUuXNnR/D3dna7XYmJierUqZP8/PysLserbdxonnUTHV1dt98e6fQY/eQ+6Cv3QD+5B/rJfdBX7oF+clYwuxauw6MDepcuXfTVV18V++WrXbu2ateurX79+umXX35RSkpKiY5bqVIl+fr6Ki0tzWl/WlqaIiMji3xOZGRkidoXhPP9+/dr+fLlTiF6+fLlmj9/vv744w/H/nfffVeJiYmaMWOGnnnmmUKvGxAQoICAgEL7/fz8+EfpPHwm1svKMu/LlvWRn1/RS2TQT+6DvnIP9JN7oJ/cB33lHugnE5+B6/HoReIeeeSREv/SNWzYUB06dChRW39/f7Vs2VLLli1z7MvPz9eyZcsUGxtb5HNiY2Od2kvm1Jpz2xeE8127dmnp0qWqWLGiU/uCKSg+Ps7d5uPjo/z8/BLVDrgyFokDAACAN/PoEfTSlJCQoH79+qlVq1Zq3bq1xo8fr9OnT2vAgAGSpL59+6p69eoaM2aMJGnYsGFq27atxo4dqy5dumjWrFlav369pk6dKskM5/fee6+Sk5M1f/585eXlOc5Pr1Chgvz9/RUbG6vy5curX79+euGFFxQUFKQPPvhAe/fuVZcuXaz5IIAriIAOAAAAb+bxAb18+fKy2WwXbXfixIlLOm6vXr109OhRvfDCC0pNTVXz5s21ePFix0JwBw4ccBrpbtOmjWbOnKnnn39ezz77rKKjozV37lw1btxYknTo0CF98803kqTmzZs7vdaKFSvUrl07VapUSYsXL9Zzzz2n9u3by263q1GjRpo3b56aNWt2SfUDrqggoIeGWlsHAAAAYAWPD+hvv/12iQL65RgyZIiGDBlS5GMrV64stK9Hjx7q0aNHke1r1aolwzAu+pqtWrXSd999d0l1Au4iI8O8ZwQdAAAA3sjjA3r//v2tLgFACTHFHQAAAN7MoxeJk6R169YpLy+v2Mezs7P1xRdfXMWKABSHgA4AAABv5vEBPTY2VsePH3f8HBYWpt9++83x88mTJ9W7d28rSgNwHgI6AAAAvJnHB/Tzz+su6jzvkpz7DaD0EdABAADgzTw+oJdEaS0iB+DSENABAADgzQjoAFwGAR0AAADezONXcZekX375RampqZLM6ew7duxQxv+u53Ts2DErSwPwP3l5UlaWuc110AEAAOCNvCKgd+jQwek88zvuuEOSObXdMAymuAMuoGD0XGIEHQAAAN7J4wP63r17rS4BQAkUBHSbTQoMtLYWAAAAwAoeH9Br1qxpdQkASuDc88+Z1AIAAABv5NGLxB04cOCS2h86dKiUKgFwMSwQBwAAAG/n0QH9hhtu0COPPKKffvqp2DanTp3SBx98oMaNG+urr766itUBOBcBHQAAAN7Oo6e4//LLL/r3v/+tTp06KTAwUC1btlS1atUUGBioP/74Q7/88ou2bdum66+/Xm+88YZuv/12q0sGvBYBHQAAAN7Oo0fQK1asqHHjxiklJUWTJk1SdHS0jh07pl27dkmS+vTpow0bNigpKYlwDliMgA4AAABv59Ej6AWCgoJ077336t5777W6FADFIKADAADA23n0CDoA91EQ0ENDra0DAAAAsAoBHYBLyMgw7xlBBwAAgLcioANwCUxxBwAAgLcjoANwCQR0AAAAeDsCOgCXQEAHAACAt/OagD5jxgwtWLDA8fM///lPhYeHq02bNtq/f7+FlQGQCOgAAACA1wT0V199VUFBQZKkpKQkTZ48WW+88YYqVaqkJ5980uLqABDQAQAA4O284jroknTw4EHVrVtXkjR37lx1795dDz/8sG666Sa1a9fO2uIAENABAADg9bxmBD00NFTHjx+XJC1ZskSdOnWSJAUGBurMmTNWlgZABHQAAADAa0bQO3XqpL///e9q0aKFfv31V91+++2SpG3btqlWrVrWFgfAcR300FBr6wAAAACs4jUj6JMnT1ZsbKyOHj2qr776ShUrVpQkbdiwQb1797a4OgCMoAMAAMDbec0Ienh4uCZNmlRo/0svvWRBNQDOR0AHAACAt/OagP7DDz9c8PFbbrnlKlUCoCgEdAAAAHg7rwnoRa3UbrPZHNt5eXlXsRoA5yOgAwAAwNt5zTnof/zxh9PtyJEjWrx4sW644QYtWbLE6vIAr5aXJ2VlmdsEdAAAAHgrrxlBL1euXKF9nTp1kr+/vxISErRhwwYLqgIgSZmZZ7cJ6AAAAPBWXjOCXpyIiAjt3LnT6jIAr1Ywvd1mk4KCrK0FAAAAsIrXjKBv2bLF6WfDMJSSkqLXXntNzZs3t6YoAJKczz8/Z2kIAAAAwKt4TUBv3ry5bDabDMNw2n/jjTdq2rRpFlUFQJIyMsx7prcDAADAm3lNQN+7d6/Tzz4+PqpcubICAwMtqghAAVZwBwAAALwooNesWdPqEgAUg4AOAAAAeHhAf+edd0rc9oknnijFSgBcCAEdAAAA8PCA/vbbb5eonc1mI6ADFiKgAwAAAB4e0M8/7xyAayKgAwAAAFwHHYALIKADAAAAHj6Cfq6HHnrogo9zqTXAOgR0AAAAwIsC+h9//OH0s91u19atW3Xy5Em1b9/eoqoASGcDemiotXUAAAAAVvKagP71118X2pefn6/HHntMderUsaAiAAUyMsx7RtABAADgzbz6HHQfHx8lJCSUeLV3AKWDKe4AAACAlwd0SdqzZ49yc3Mv67mTJ09WrVq1FBgYqJiYGK1bt+6C7WfPnq369esrMDBQTZo00cKFCx2P2e12jRgxQk2aNFFISIiqVaumvn376vDhw4WOs2DBAsXExCgoKEjly5dXt27dLqt+wFUQ0AEAAAAvmuKekJDg9LNhGEpJSdGCBQvUr1+/Sz7e559/roSEBE2ZMkUxMTEaP3684uLitHPnTlWpUqVQ+zVr1qh3794aM2aM7rjjDs2cOVPdunVTcnKyGjdurMzMTCUnJ2vUqFFq1qyZ/vjjDw0bNkxdu3bV+vXrHcf56quvNGjQIL366qtq3769cnNztXXr1kv/QAAXQkAHAAAAvCigb9y40elnHx8fVa5cWWPHjr3oCu9FGTdunAYNGqQBAwZIkqZMmaIFCxZo2rRpeuaZZwq1nzBhguLj4/X0009Lkl5++WUlJiZq0qRJmjJlisqVK6fExESn50yaNEmtW7fWgQMHVKNGDeXm5mrYsGF68803NXDgQEe7hg0bXnL9gCshoAMAAABeFNBXrFhxxY6Vk5OjDRs2aOTIkY59Pj4+6tixo5KSkop8TlJSUqFR/Li4OM2dO7fY1zl16pRsNpvCw8MlScnJyTp06JB8fHzUokULpaamqnnz5nrzzTfVuHHjIo+RnZ2t7Oxsx8/p6emSzCn1dru9JG/X4xV8Dnwe1snI8JXko4CAXNntRpFt6Cf3QV+5B/rJPdBP7oO+cg/0kzM+B9fjNQH9Sjp27Jjy8vIUERHhtD8iIkI7duwo8jmpqalFtk9NTS2yfVZWlkaMGKHevXsrLCxMkvTbb79Jkl588UWNGzdOtWrV0tixY9WuXTv9+uuvqlChQqHjjBkzRi+99FKh/UuWLFFwcPDF36wXOX8GA66etLRbJYVp69a18vE5dsG29JP7oK/cA/3kHugn90FfuQf6yZSZmWl1CTiPRwf0Fi1ayGazlahtcnJyKVdTcna7XT179pRhGHrvvfcc+/Pz8yVJzz33nLp37y5Jmj59uq655hrNnj1bjzzySKFjjRw50mnkPj09XVFRUercubMj+Hs7u92uxMREderUSX5+flaX45WGDTP/KWrfPkatWxc/gk4/uQf6yj3QT+6BfnIf9JV7oJ+cFcyuhevw6IB+7urmWVlZevfdd9WwYUPFxsZKkn788Udt27ZNjz/++CUdt1KlSvL19VVaWprT/rS0NEVGRhb5nMjIyBK1Lwjn+/fv1/Lly51CdNWqVSU5n3MeEBCg2rVr68CBA0W+bkBAgAICAgrt9/Pz4x+l8/CZWKfgOujh4WV0sS6gn9wHfeUe6Cf3QD+5D/rKPdBPJj4D1+PRAX306NGO7b///e964okn9PLLLxdqc/DgwUs6rr+/v1q2bKlly5Y5/giQn5+vZcuWaciQIUU+JzY2VsuWLdPw4cMd+xITEx1/LJDOhvNdu3ZpxYoVqlixotMxWrZsqYCAAO3cuVM333yz4zn79u1TzZo1L+k9AK6EReIAAAAADw/o55o9e7bT5coKPPDAA2rVqpWmTZt2ScdLSEhQv3791KpVK7Vu3Vrjx4/X6dOnHau69+3bV9WrV9eYMWMkScOGDVPbtm01duxYdenSRbNmzdL69es1depUSWbQvvfee5WcnKz58+crLy/PcX56hQoV5O/vr7CwMD366KMaPXq0oqKiVLNmTb355puSpB49elz2ZwNYKS9PysoytwnoAAAA8GZeE9CDgoK0evVqRUdHO+1fvXq1AgMDL/l4vXr10tGjR/XCCy84VlNfvHixYyG4AwcOyMfHx9G+TZs2mjlzpp5//nk9++yzio6O1ty5cx2rrx86dEjffPONJKl58+ZOr7VixQq1a9dOkvTmm2+qTJkyevDBB3XmzBnFxMRo+fLlKl++/CW/B8Bq+/ZJs2ef/ZmADgAAAG/mNQF9+PDheuyxx5ScnKzWrVtLktauXatp06Zp1KhRl3XMIUOGFDulfeXKlYX29ejRo9iR7lq1askwil4c61x+fn5666239NZbb11SrYArMAxp+3Zpzhzp66+lc9dmjIqSgoKsqw0AAACwmtcE9GeeeUa1a9fWhAkT9J///EeS1KBBA02fPl09e/a0uDrAs504Ib39tjlavnPn2f0+PtItt0h33y316iWV8KILAAAAgEfymoAuST179iSMA1dRfr40fbo0YoR0/Li5z99f6tTJDOVdu0qVK1tbIwAAAOAqvCqgS9KGDRu0fft2SVKjRo3UokULiysCPNPGjdLgwVJSkvlzo0bSc89JXbpI51w9EAAAAMD/eE1AP3LkiO677z6tXLlS4eHhkqSTJ0/q1ltv1axZs1SZYTzgijh5Uho1Snr3XXMEPTRUevFF6YkndNFrnAMAAADezOfiTTzD0KFD9eeff2rbtm06ceKETpw4oa1btyo9PV1PPPGE1eUBbs8wpP/7P6l+fWnSJDOc9+ol7dgh/eMfhHMAAADgYrxmBH3x4sVaunSpGjRo4NjXsGFDTZ48WZ07d7awMsC9ZWVJ//mPNH68tG2bua9ePTOkd+xoaWkAAACAW/GagJ6fny+/Iobw/Pz8lJ+fb0FFgHtLS5Pee8+cyn70qLkvNNQ8zzwhwVwMDgAAAEDJec0U9/bt22vYsGE6fPiwY9+hQ4f05JNPqkOHDhZWBriXn3+WHnpIqlFDeuklM5zXqCG99Zb0++/SM88QzgEAAIDL4TUj6JMmTVLXrl1Vq1YtRUVFSZIOHjyoxo0bO66LDqBo+fnSd99J48ZJS5ee3R8TY46W33OPVMZr/jUBAAAASofX/C91VFSUkpOTtXTpUu3YsUOS1KBBA3XkJFmgWGfOmAu/vf22udibJPn4mIE8IUGKjbW2PgAAAMCTeE1AlySbzaZOnTqpU6dOVpcCuLTUVGnyZPMc8+PHzX1ly0p//7t5ubRatSwtDwAAAPBIHh/QP/nkkxK169u3bylXAri+zZvN0fKZMyW73dxXq5Y0bJh53nlYmKXlAQAAAB7N4wN6//79FRoaqjJlysgwjCLb2Gw2Ajq8Vn6+tHChGcyXLz+7v00bcxr7XXdxfjkAAABwNXj8/3Y3aNBAaWlpeuCBB/TQQw+padOmVpcEuITMTGnGDPP65b/+au7z9ZXuvVd68klzATgAAAAAV4/HX2Zt27ZtWrBggc6cOaNbbrlFrVq10nvvvaf09HSrSwMsceqUea3yqCjp8cfNcF6unPT009Jvv0mzZhHOAQAAACt4fECXpJiYGL3//vtKSUnRE088oS+++EJVq1ZVnz59lJ2dbXV5wFUzZ47UoIH06qvSiRNS7drSO+9IBw9Kb7xhXs8cAAAAgDW8IqAXCAoKUt++ffXSSy+pdevWmjVrljIzM60uCyh1hw5Jd98tde8upaRI0dFmWP/1V2noUHOFdgAAAADW8pqAfujQIb366quKjo7WfffdpxtuuEHbtm1T+fLlrS4NKDX5+dK775qj5nPnmou9PfectGWLGdh9fa2uEAAAAEABj18k7osvvtD06dP1/fffKy4uTmPHjlWXLl3kSzKBh9u2TXr4YWnNGvPnmBjpgw+kJk2srQsAAABA0Tw+oN93332qUaOGnnzySUVERGjfvn2aPHlyoXZPPPGEBdUBV15envT669KLL5rXMg8NlcaMkR57jBFzAAAAwJV5fECvUaOGbDabZs6cWWwbm81GQIdHOHBAevBB6YcfzJ/vvFOaPNlcsR0AAACAa/P4gL5v3z6rSwCuitmzzSntJ0+ao+aTJkl9+0o2m9WVAQAAACgJjw/ogKfLyJCeeEKaPt38uXVraeZMqU4da+sCAAAAcGm8ZhV3wBOtXy9df70Zzm02c4X2//6XcA4AAAC4I0bQATc1ebI0fLiUmytdc430n/9IbdtaXRUAAACAy8UIOuCGfvxRGjrUDOf33mte15xwDgAAALg3RtABN5OdLT30kGQY0gMPSJ98wkJwAAAAgCfw6ICenp5e4rZhYWGlWAlw5bzyirR9u1SlijR+POEcAAAA8BQeHdDDw8Nlu0h6MQxDNptNeXl5V6kq4PJt3iy99pq5PXmyVLGitfUAAAAAuHI8OqCvWLHC6hKAKyY315zanpsr3XOPee45AAAAAM/h0QG9LatmwYO89ZaUnCyVL2+OngMAAADwLB4d0IuSmZmpAwcOKCcnx2l/06ZNLaoIuLidO6UXXzS3335bioy0tBwAAAAApcBrAvrRo0c1YMAALVq0qMjHOQcdrio/Xxo40Fy9PT5e6tvX6ooAAAAAlAavuQ768OHDdfLkSa1du1ZBQUFavHixZsyYoejoaH3zzTdWlwcUa/JkafVqKTRUev99Vm0HAAAAPJXXjKAvX75c8+bNU6tWreTj46OaNWuqU6dOCgsL05gxY9SlSxerSwQK2bdPGjnS3H79dalGDUvLAQAAAFCKvGYE/fTp06pSpYokqXz58jp69KgkqUmTJkpOTrayNKBIhiE9/LB0+rT0t79Jjz5qdUUAAAAASpPXBPR69epp586dkqRmzZrp/fff16FDhzRlyhRVrVrV4uqAwp5/XkpMlAIDpQ8/lHy85tsKAAAAeCevmeI+bNgwpaSkSJJGjx6t+Ph4ffrpp/L399fHH39sbXHAeT74QHr1VXP73Xel666zth4AAAAApc9rAvoDDzzg2G7ZsqX279+vHTt2qEaNGqpUqZKFlQHOFi2SHnvM3H7hBWnAAGvrAQAAAHB1eMWkWbvdrjp16mj79u2OfcHBwbr++usJ53ApGzdKPXtKeXnm5dQKrn0OAAAAwPN5RUD38/NTVlaW1WUAF3TggNSli5SRIbVvb05z55JqAAAAgPfwioAuSYMHD9brr7+u3Nxcq0sBCjl5Urr9diklRWrcWJozR/L3t7oqAAAAAFeT15yD/tNPP2nZsmVasmSJmjRpopCQEKfH58yZY1Fl8HY5OVL37tK2bVLVqtLChVK5clZXBQAAAOBq85qAHh4eru7du1tdBuDEMKS//11avlwKDZUWLJCioqyuCgAAAIAVvCagT58+/Yofc/LkyXrzzTeVmpqqZs2aaeLEiWrdunWx7WfPnq1Ro0Zp3759io6O1uuvv67bb79dkrmQ3fPPP6+FCxfqt99+U7ly5dSxY0e99tprqlatWqFjZWdnKyYmRps3b9bGjRvVvHnzK/7+UPqefVb6v/+TfH2l2bOlFi2srggAAACAVbzmHPQr7fPPP1dCQoJGjx6t5ORkNWvWTHFxcTpy5EiR7desWaPevXtr4MCB2rhxo7p166Zu3bpp69atkqTMzEwlJydr1KhRSk5O1pw5c7Rz50517dq1yOP985//LDK4w3288Yb02mvm9pQpUny8tfUAAAAAsJbXjKBfe+21sl1gSezffvvtko43btw4DRo0SAP+d5HqKVOmaMGCBZo2bZqeeeaZQu0nTJig+Ph4Pf3005Kkl19+WYmJiZo0aZKmTJmicuXKKTEx0ek5kyZNUuvWrXXgwAHVqFHDsX/RokVasmSJvvrqKy1atOiS6oZrmDpVGjHC3H79dXOaOwAAAADv5jUBffjw4U4/2+12bdy4UYsXL3aE5pLKycnRhg0bNHLkSMc+Hx8fdezYUUlJSUU+JykpSQkJCU774uLiNHfu3GJf59SpU7LZbAoPD3fsS0tL06BBgzR37lwFBwdftNbs7GxlZ2c7fk5PT5dkvn+73X7R53uDgs/han0eX3xh06OP+kqy6emn8/Tkk/miKy7uavcTLh995R7oJ/dAP7kP+so90E/O+Bxcj9cE9GHDhhW5f/LkyVq/fv0lHevYsWPKy8tTRESE0/6IiAjt2LGjyOekpqYW2T41NbXI9llZWRoxYoR69+6tsLAwSZJhGOrfv78effRRtWrVSvv27btorWPGjNFLL71UaP+SJUtKFPC9yfkzGEpDcnIVvfpqjAzDpvj4vWrTZosWLiz1l/UoV6OfcGXQV+6BfnIP9JP7oK/cA/1kyszMtLoEnMdrAnpxbrvtNo0cObJUFpG7XHa7XT179pRhGHrvvfcc+ydOnKg///zTaeT+YkaOHOk0cp+enq6oqCh17tzZEfy9nd1uV2Jiojp16iQ/P79Se53Vq216801f5eba1LNnvmbMuEa+vteU2ut5mqvVT/jr6Cv3QD+5B/rJfdBX7oF+clYwuxauw+sD+pdffqkKFSpc0nMqVaokX19fpaWlOe1PS0tTZGRkkc+JjIwsUfuCcL5//34tX77cKUQvX75cSUlJCggIcHpOq1at1KdPH82YMaPQ6wYEBBRqL0l+fn78o3Se0vxMNm2SunWTzpyRbr9d+s9/fOTnxxqNl4PfXfdBX7kH+sk90E/ug75yD/STic/A9XhNQG/RooXTInGGYSg1NVVHjx7Vu+++e0nH8vf3V8uWLbVs2TJ169ZNkpSfn69ly5ZpyJAhRT4nNjZWy5YtczoXPjExUbGxsY6fC8L5rl27tGLFClWsWNHpGO+8845eeeUVx8+HDx9WXFycPv/8c8XExFzSe8DVs2uXFBcnnTol/e1v5uXU+LcQAAAAwPm8JqAXBOkCPj4+qly5stq1a6f69etf8vESEhLUr18/tWrVSq1bt9b48eN1+vRpx6ruffv2VfXq1TVmzBhJ5jnwbdu21dixY9WlSxfNmjVL69ev19SpUyWZ4fzee+9VcnKy5s+fr7y8PMf56RUqVJC/v7/TSu6SFBoaKkmqU6eOrrmGqdKu6MQJc8T8yBHp+uulb7+VOPUfAAAAQFG8JqCPHj36ih6vV69eOnr0qF544QWlpqaqefPmWrx4sWMhuAMHDsjH5+wU5jZt2mjmzJl6/vnn9eyzzyo6Olpz585V48aNJUmHDh3SN998I0lq3ry502utWLFC7dq1u6L1o/Tl5kq9ekm7d0u1akmLFknlylldFQAAAABX5TUB/eOPP1b//v0L7c/NzdWoUaMcI92XYsiQIcVOaV+5cmWhfT169FCPHj2KbF+rVi0ZhnFJr385z8HV8/TT0tKlUkiING+eVKWK1RUBAAAAcGVes0rVE088oR49euiPP/5w7Nu5c6diYmL02WefWVgZPNH06dL48eb2J59ITZtaWg4AAAAAN+A1AX3jxo36/fff1aRJEyUmJmry5Mm6/vrrVb9+fW3evNnq8uBB1qyRHn3U3H7xRemeeywtBwAAAICb8Jop7nXq1NHq1as1fPhwxcfHy9fXVzNmzFDv3r2tLg0e5OBBM5Dn5Ejdu0ujRlldEQAAAAB34TUj6JK0YMECzZo1S7GxsQoPD9dHH32kw4cPW10WPERmpnT33VJamjml/eOPJR+v+oYBAAAA+Cu8Jj488sgj6tGjh0aMGKFVq1Zpy5Yt8vf3V5MmTfTFF19YXR7cnGFIAwdKGzZIlSqZi8L97yp4AAAAAFAiXjPFffXq1Vq7dq2aNWsmSYqMjNTChQs1efJkPfTQQ+rZs6fFFcKdvf66NGuWVKaM9OWX5mXVAAAAAOBSeE1A37BhgwICAgrtHzx4sDp27GhBRfAUq1ZJzz1nbk+cKLVta209AAAAANyT10xxDwgI0J49e/T888+rd+/eOnLkiCRp0aJFys3Ntbg6uKuTJ6UHHpDy86W+fc+u3g4AAAAAl8prAvr333+vJk2aaO3atZozZ44yMjIkSZs3b9bo0aMtrg7uyDCkxx6TDhyQateWJk2yuiIAAAAA7sxrAvozzzyjV155RYmJifL393fsb9++vX788UcLK4O7+r//M8879/WVZs6Uypa1uiIAAAAA7sxrAvrPP/+su+++u9D+KlWq6NixYxZUBHe2Z480eLC5/eKLUkyMpeUAAAAA8ABeE9DDw8OVkpJSaP/GjRtVvXp1CyqCu7LbpT59pIwM6W9/k0aOtLoiAAAAAJ7AawL6fffdpxEjRig1NVU2m035+flavXq1nnrqKfXt29fq8uBG/vUvae1aqVw56T//Mae4AwAAAMBf5TUB/dVXX1X9+vUVFRWljIwMNWzYULfccovatGmj559/3ury4CZWrZJefdXcfv99qUYNa+sBAAAA4Dm85jro/v7++uCDDzRq1Cht3bpVGRkZatGihaKjo60uDW7i3Euq9esn9epldUUAAAAAPInXBPQCNWrUUA2GPXGJDMO8xvmBA1KdOtLEiVZXBAAAAMDTeHRAT0hIKHHbcePGlWIlcHfLlkmff26eb/7pp1xSDQAAAMCV59EBfePGjSVqZ7PZSrkSuLuCv9889hiXVAMAAABQOjw6oK9YscLqEuABtm+XFi2SbDZp+HCrqwEAAADgqTx+FffffvtNhmFYXQbc2IQJ5n3Xrub55wAAAABQGjw+oEdHR+vo0aOOn3v16qW0tDQLK4I7OX5c+uQTc/vJJ62tBQAAAIBn8/iAfv7o+cKFC3X69GmLqoG7ef996cwZqUUL6ZZbrK4GAAAAgCfz+IAOXK6cHGnSJHP7ySfNc9ABAAAAoLR4fEC32WyFVmln1XaUxBdfSCkpUtWqUq9eVlcDAAAAwNN59CrukjnFvX///goICJAkZWVl6dFHH1VISIhTuzlz5lhRHlyUYUhvv21uDx4s+ftbWw8AAAAAz+fxAb1fv35OPz/wwAMWVQJ3smqVlJwsBQZKjzxidTUAAAAAvIHHB/Tp06dbXQLc0Pjx5v2DD0qVKllaCgAAAAAv4fHnoAOX6rffpLlzze3hw62sBAAAAIA3IaAD53nnHfMc9Lg4qWFDq6sBAAAA4C0I6MA5Tp2SPvrI3H7ySWtrAQAAAOBdCOjAOT76SMrIMEfOO3e2uhoAAAAA3oSADvxPbq45vV0yzz232SwtBwAAAICXIaAD/zNvnk3795urtnM1PgAAAABXGwEd+J933jG/Do8+KgUFWVwMAAAAAK9DQAck/fpruJKSfOTnJz3+uNXVAAAAAPBGBHRA0rff1pEk9e4tVa1qcTEAAAAAvBIBHV7v4EFp9epqkri0GgAAAADrENDh9d5910f5+T5q2zZfzZtbXQ0AAAAAb0VAh1fLyJA++sj8GjzxRL7F1QAAAADwZgR0eLUZM6STJ22qWjVDXboYVpcDAAAAwIsR0OG18vOlCRPM7Tvu+E0+fBsAAAAAWIhIAq+1YIG0a5dUrpyh9u0PWF0OAAAAAC9HQIfXevtt837gwHwFBeVZWwwAAAAAr0dAh1fatElasULy9ZUef5zF4QAAAABYj4D+F0yePFm1atVSYGCgYmJitG7dugu2nz17turXr6/AwEA1adJECxcudDxmt9s1YsQINWnSRCEhIapWrZr69u2rw4cPO9rs27dPAwcO1LXXXqugoCDVqVNHo0ePVk5OTqm9R081frx53727VKOGpaUAAAAAgCQC+mX7/PPPlZCQoNGjRys5OVnNmjVTXFycjhw5UmT7NWvWqHfv3ho4cKA2btyobt26qVu3btq6daskKTMzU8nJyRo1apSSk5M1Z84c7dy5U127dnUcY8eOHcrPz9f777+vbdu26e2339aUKVP07LPPXpX37ClSU6XPPjO3n3zS2loAAAAAoEAZqwtwV+PGjdOgQYM0YMAASdKUKVO0YMECTZs2Tc8880yh9hMmTFB8fLyefvppSdLLL7+sxMRETZo0SVOmTFG5cuWUmJjo9JxJkyapdevWOnDggGrUqKH4+HjFx8c7Hq9du7Z27typ9957T2+99VYpvlvP8u67Uk6OdOON5s1ut7oiAAAAACCgX5acnBxt2LBBI0eOdOzz8fFRx44dlZSUVORzkpKSlJCQ4LQvLi5Oc+fOLfZ1Tp06JZvNpvDw8Au2qVChQrGPZ2dnKzs72/Fzenq6JHNKvd0Lk+mZM9J775WRZNPQobmy2w3H5+CNn4c7oZ/cB33lHugn90A/uQ/6yj3QT874HFwPAf0yHDt2THl5eYqIiHDaHxERoR07dhT5nNTU1CLbp6amFtk+KytLI0aMUO/evRUWFlZkm927d2vixIkXHD0fM2aMXnrppUL7lyxZouDg4GKf56kSE2vo2LEWqlw5U4GBS7VwoXHOY4kXeCZcBf3kPugr90A/uQf6yX3QV+6BfjJlZmZaXQLOQ0B3QXa7XT179pRhGHrvvfeKbHPo0CHFx8erR48eGjRoULHHGjlypNPIfXp6uqKiotS5c+dig7+nMgzp2WfNX/l//CNAd955myTz805MTFSnTp3k5+dnZYm4APrJfdBX7oF+cg/0k/ugr9wD/eSsYHYtXAcB/TJUqlRJvr6+SktLc9qflpamyMjIIp8TGRlZovYF4Xz//v1avnx5kSH68OHDuvXWW9WmTRtNnTr1grUGBAQoICCg0H4/Pz+v+0dpyRLpl1+kkBDpkUd85efn6/S4N34m7oh+ch/0lXugn9wD/eQ+6Cv3QD+Z+AxcD6u4XwZ/f3+1bNlSy5Ytc+zLz8/XsmXLFBsbW+RzYmNjndpL5tSac9sXhPNdu3Zp6dKlqlixYqHjHDp0SO3atVPLli01ffp0+fjQhSX19tvm/UMPSRc4rR8AAAAALMEI+mVKSEhQv3791KpVK7Vu3Vrjx4/X6dOnHau69+3bV9WrV9eYMWMkScOGDVPbtm01duxYdenSRbNmzdL69esdI+B2u1333nuvkpOTNX/+fOXl5TnOT69QoYL8/f0d4bxmzZp66623dPToUUc9xY3cw7R9u7R4sWSzScOGWV0NAAAAABRGQL9MvXr10tGjR/XCCy8oNTVVzZs31+LFix0LwR04cMBpdLtNmzaaOXOmnn/+eT377LOKjo7W3Llz1bhxY0nmyPg333wjSWrevLnTa61YsULt2rVTYmKidu/erd27d+uaa65xamMYhlC8CRPM+65dpTp1rK0FAAAAAIpCQP8LhgwZoiFDhhT52MqVKwvt69Gjh3r06FFk+1q1al00ZPfv31/9+/e/1DK93vHj0iefmNtPPmltLQAAAABQHE5ghsd7/33z+uctWki33GJ1NQAAAABQNAI6PFpOjjRpkrn95JPmOegAAAAA4IoI6PBoX3whpaRIVatKvXpZXQ0AAAAAFI+ADo9lGGcvrTZ4sOTvb209AAAAAHAhBHR4rFWrpORkKTBQeuQRq6sBAAAAgAsjoMNjFYyeP/igVKmStbUAAAAAwMUQ0OGR9uyR5s0zt4cPt7QUAAAAACgRAjo80jvvmOegx8VJDRtaXQ0AAAAAXBwBHR7n1Clp2jRz+8knra0FAAAAAEqKgA6P8+GHUkaGOXLeubPV1QAAAABAyRDQ4VHy8qSJE83t4cMlm83ScgAAAACgxAjo8CjffSft3y+VLy898IDV1QAAAABAyRHQ4VE+/NC879tXCgqythYAAAAAuBQEdHiM1FTp22/N7b//3dpaAAAAAOBSEdDhMWbMkHJzpRtvlBo3troaAAAAALg0BHR4BMM4O72d0XMAAAAA7oiADo/www/S7t1SaKjUq5fV1QAAAADApSOgwyN88IF537u3GdIBAAAAwN0Q0OH2/vhD+vJLc5vp7QAAAADcFQEdbu/TT6XsbKlpU+mGG6yuBgAAAAAuDwEdbs0wzk5v//vfJZvN2noAAAAA4HIR0OHW1q+XtmyRAgKkPn2srgYAAAAALh8BHW6t4NJq994rVahgbS0AAAAA8FcQ0OG2MjKkmTPNbRaHAwAAAODuCOhwW198YYb0unWltm2trgYAAAAA/hoCOtwWi8MBAAAA8CQEdLilrVulH3+UfH2lfv2srgYAAAAA/joCOtzSRx+Z93feKUVGWlsLAAAAAFwJBHS4naws6ZNPzO1Bg6ytBQAAAACuFAI63M7ChdKJE1L16lJcnNXVAAAAAMCVQUCH25k717zv1cs8Bx0AAAAAPAEBHW7Fbpfmzze3u3WztBQAAAAAuKII6HArq1ZJf/whVaoktWljdTUAAAAAcOUQ0OFWCqa3d+3K9HYAAAAAnoWADrdhGGcDOtPbAQAAAHgaAjrcRnKydPCgFBwsdexodTUAAAAAcGUR0OE2CkbP4+OloCBLSwEAAACAK46ADrfB9HYAAAAAnoyADrewe7e0dau5MFyXLlZXAwAAAABXHgEdbmHePPO+XTupQgVLSwEAAACAUkFAh1tgejsAAAAAT0dAh8s7ckRavdrcvusua2sBAAAAgNJCQIfL+/Zb8xroLVtKUVFWVwMAAAAApYOADpfH9HYAAAAA3oCA/hdMnjxZtWrVUmBgoGJiYrRu3boLtp89e7bq16+vwMBANWnSRAsXLnQ8ZrfbNWLECDVp0kQhISGqVq2a+vbtq8OHDzsd48SJE+rTp4/CwsIUHh6ugQMHKiMjo1TenyvIyJASE81tAjoAAAAAT0ZAv0yff/65EhISNHr0aCUnJ6tZs2aKi4vTkSNHimy/Zs0a9e7dWwMHDtTGjRvVrVs3devWTVu3bpUkZWZmKjk5WaNGjVJycrLmzJmjnTt3qmvXrk7H6dOnj7Zt26bExETNnz9fP/zwgx5++OFSf79W+e47KTtbqlNHatTI6moAAAAAoPQQ0C/TuHHjNGjQIA0YMEANGzbUlClTFBwcrGnTphXZfsKECYqPj9fTTz+tBg0a6OWXX9b111+vSZMmSZLKlSunxMRE9ezZU/Xq1dONN96oSZMmacOGDTpw4IAkafv27Vq8eLE+/PBDxcTE6Oabb9bEiRM1a9asQiPtnuLc6e02m5WVAAAAAEDpKmN1Ae4oJydHGzZs0MiRIx37fHx81LFjRyUlJRX5nKSkJCUkJDjti4uL09yCBFqEU6dOyWazKTw83HGM8PBwtWrVytGmY8eO8vHx0dq1a3X33XcXOkZ2drays7MdP6enp0syp9Tb7faLvlcr2e3S/PllJNl0xx25stuNUnodu9M9XBP95D7oK/dAP7kH+sl90FfugX5yxufgegjol+HYsWPKy8tTRESE0/6IiAjt2LGjyOekpqYW2T41NbXI9llZWRoxYoR69+6tsLAwxzGqVKni1K5MmTKqUKFCsccZM2aMXnrppUL7lyxZouDg4KLfoIvYvLmyTp5so3LlsnXixGKdc8p+qUgsONkdLo1+ch/0lXugn9wD/eQ+6Cv3QD+ZMjMzrS4B5yGguyC73a6ePXvKMAy99957f+lYI0eOdBq5T09PV1RUlDp37uwI/q7qu+/MMzDuucdPd955e6m9jt1uV2Jiojp16iQ/P79Sex38NfST+6Cv3AP95B7oJ/dBX7kH+slZwexauA4C+mWoVKmSfH19lZaW5rQ/LS1NkZGRRT4nMjKyRO0Lwvn+/fu1fPlypxAdGRlZaBG63NxcnThxotjXDQgIUEBAQKH9fn5+Lv2PkmFI33xjbnfv7iM/v9JfLsHVPxOY6Cf3QV+5B/rJPdBP7oO+cg/0k4nPwPWwSNxl8Pf3V8uWLbVs2TLHvvz8fC1btkyxsbFFPic2NtapvWROrTm3fUE437Vrl5YuXaqKFSsWOsbJkye1YcMGx77ly5crPz9fMTExV+KtuYwNG6RDh6SQEKlDB6urAQAAAIDSxwj6ZUpISFC/fv3UqlUrtW7dWuPHj9fp06c1YMAASVLfvn1VvXp1jRkzRpI0bNgwtW3bVmPHjlWXLl00a9YsrV+/XlOnTpVkhvN7771XycnJmj9/vvLy8hznlVeoUEH+/v5q0KCB4uPjNWjQIE2ZMkV2u11DhgzRfffdp2rVqlnzQZSSgrXzbrtNCgy0tBQAAAAAuCoI6JepV69eOnr0qF544QWlpqaqefPmWrx4sWMhuAMHDsjH5+wEhTZt2mjmzJl6/vnn9eyzzyo6Olpz585V48aNJUmHDh3SN/+b0928eXOn11qxYoXatWsnSfr00081ZMgQdejQQT4+Purevbveeeed0n/DV9m5l1cDAAAAAG9AQP8LhgwZoiFDhhT52MqVKwvt69Gjh3r06FFk+1q1askwLn4ZsQoVKmjmzJmXVKe72bVL2rZNKlNGur301oYDAAAAAJfCOehwOfPmmfft2knly1taCgAAAABcNQR0uBymtwMAAADwRgR0uJS0NGnNGnO7a1drawEAAACAq4mADpfy7bfmNdBbtZKioqyuBgAAAACuHgI6XArT2wEAAAB4KwI6XMaff0qJieb23XdbWwsAAAAAXG0EdLiMxYulnBwpOlpq0MDqagAAAADg6iKgw2WcO73dZrOyEgAAAAC4+gjocAk5OdKCBeY2558DAAAA8EYEdLiE77+XTp2SIiKkmBirqwEAAACAq4+ADpdQML29a1fJ19fSUgAAAADAEgR0WC4/X5o3z9xmejsAAAAAb0VAh+U2bJAOHZJCQ6X27a2uBgAAAACsQUCH5Qqmt992mxQYaGkpAAAAAGAZAjosd+7l1QAAAADAWxHQYalff5V++UUqU0a6/XarqwEAAAAA6xDQYamCxeHat5fCwy0tBQAAAAAsRUCHpb7+2rxnejsAAAAAb0dAh2VSUqQffzS3u3a1thYAAAAAsBoBHZb59lvJMKTWraXq1a2uBgAAAACsRUCHZVi9HQAAAADOIqDDEnl50r595jYBHQAAAACkMlYXAO/k6ytt2yZt3y7Vr291NQAAAABgPQI6LGOzSQ0bWl0FAAAAALgGprgDAAAAAOACCOgAAAAAALgAAjoAAAAAAC6AgA4AAAAAgAsgoAMAAAAA4AII6AAAAAAAuAACOgAAAAAALoCADgAAAACACyCgAwAAAADgAgjoAAAAAAC4AAI6AAAAAAAugIAOAAAAAIALIKADAAAAAOACCOgAAAAAALgAAjoAAAAAAC6AgA4AAAAAgAsgoAMAAAAA4ALKWF0Ari7DMCRJ6enpFlfiOux2uzIzM5Weni4/Pz+ry0Ex6Cf3QV+5B/rJPdBP7oO+cg/0k7OCTFCQEWA9ArqX+fPPPyVJUVFRFlcCAAAAwBX8+eefKleunNVlQJLN4M8lXiU/P1+HDx9W2bJlZbPZrC7HJaSnpysqKkoHDx5UWFiY1eWgGPST+6Cv3AP95B7oJ/dBX7kH+smZYRj6888/Va1aNfn4cPazK2AE3cv4+PjommuusboMlxQWFsY/1G6AfnIf9JV7oJ/cA/3kPugr90A/ncXIuWvhzyQAAAAAALgAAjoAAAAAAC6AgA6vFxAQoNGjRysgIMDqUnAB9JP7oK/cA/3kHugn90FfuQf6Ca6OReIAAAAAAHABjKADAAAAAOACCOgAAAAAALgAAjoAAAAAAC6AgA4AAAAAgAsgoMMrvfjii7LZbE63+vXrW10WJP3www+68847Va1aNdlsNs2dO9fpccMw9MILL6hq1aoKCgpSx44dtWvXLmuK9WIX66f+/fsX+o7Fx8dbU6wXGzNmjG644QaVLVtWVapUUbdu3bRz506nNllZWRo8eLAqVqyo0NBQde/eXWlpaRZV7J1K0k/t2rUr9J169NFHLarYe7333ntq2rSpwsLCFBYWptjYWC1atMjxON8n13CxfuL7BFdGQIfXatSokVJSUhy3//73v1aXBEmnT59Ws2bNNHny5CIff+ONN/TOO+9oypQpWrt2rUJCQhQXF6esrKyrXKl3u1g/SVJ8fLzTd+yzzz67ihVCkr7//nsNHjxYP/74oxITE2W329W5c2edPn3a0ebJJ5/Ut99+q9mzZ+v777/X4cOHdc8991hYtfcpST9J0qBBg5y+U2+88YZFFXuva665Rq+99po2bNig9evXq3379rrrrru0bds2SXyfXMXF+kni+wQXZgBeaPTo0UazZs2sLgMXIcn4+uuvHT/n5+cbkZGRxptvvunYd/LkSSMgIMD47LPPLKgQhlG4nwzDMPr162fcddddltSD4h05csSQZHz//feGYZjfHz8/P2P27NmONtu3bzckGUlJSVaV6fXO7yfDMIy2bdsaw4YNs64oFKt8+fLGhx9+yPfJxRX0k2HwfYJrYwQdXmvXrl2qVq2aateurT59+ujAgQNWl4SL2Lt3r1JTU9WxY0fHvnLlyikmJkZJSUkWVoairFy5UlWqVFG9evX02GOP6fjx41aX5PVOnTolSapQoYIkacOGDbLb7U7fqfr166tGjRp8pyx0fj8V+PTTT1WpUiU1btxYI0eOVGZmphXl4X/y8vI0a9YsnT59WrGxsXyfXNT5/VSA7xNcVRmrCwCsEBMTo48//lj16tVTSkqKXnrpJf3tb3/T1q1bVbZsWavLQzFSU1MlSREREU77IyIiHI/BNcTHx+uee+7Rtddeqz179ujZZ5/VbbfdpqSkJPn6+lpdnlfKz8/X8OHDddNNN6lx48aSzO+Uv7+/wsPDndrynbJOUf0kSffff79q1qypatWqacuWLRoxYoR27typOXPmWFitd/r5558VGxurrKwshYaG6uuvv1bDhg21adMmvk8upLh+kvg+wbUR0OGVbrvtNsd206ZNFRMTo5o1a+qLL77QwIEDLawM8Az33XefY7tJkyZq2rSp6tSpo5UrV6pDhw4WVua9Bg8erK1bt7Lehosrrp8efvhhx3aTJk1UtWpVdejQQXv27FGdOnWudplerV69etq0aZNOnTqlL7/8Uv369dP3339vdVk4T3H91LBhQ75PcGlMcQckhYeH67rrrtPu3butLgUXEBkZKUmFVsRNS0tzPAbXVLt2bVWqVInvmEWGDBmi+fPna8WKFbrmmmsc+yMjI5WTk6OTJ086tec7ZY3i+qkoMTExksR3ygL+/v6qW7euWrZsqTFjxqhZs2aaMGEC3ycXU1w/FYXvE1wJAR2QlJGRoT179qhq1apWl4ILuPbaaxUZGally5Y59qWnp2vt2rVO55XB9fz+++86fvw437GrzDAMDRkyRF9//bWWL1+ua6+91unxli1bys/Pz+k7tXPnTh04cIDv1FV0sX4qyqZNmySJ75QLyM/PV3Z2Nt8nF1fQT0Xh+wRXwhR3eKWnnnpKd955p2rWrKnDhw9r9OjR8vX1Ve/eva0uzetlZGQ4/QV779692rRpkypUqKAaNWpo+PDheuWVVxQdHa1rr71Wo0aNUrVq1dStWzfrivZCF+qnChUq6KWXXlL37t0VGRmpPXv26J///Kfq1q2ruLg4C6v2PoMHD9bMmTM1b948lS1b1nEebLly5RQUFKRy5cpp4MCBSkhIUIUKFRQWFqahQ4cqNjZWN954o8XVe4+L9dOePXs0c+ZM3X777apYsaK2bNmiJ598UrfccouaNm1qcfXeZeTIkbrttttUo0YN/fnnn5o5c6ZWrlyp7777ju+TC7lQP/F9gsuzehl5wAq9evUyqlatavj7+xvVq1c3evXqZezevdvqsmAYxooVKwxJhW79+vUzDMO81NqoUaOMiIgIIyAgwOjQoYOxc+dOa4v2Qhfqp8zMTKNz585G5cqVDT8/P6NmzZrGoEGDjNTUVKvL9jpF9ZEkY/r06Y42Z86cMR5//HGjfPnyRnBwsHH33XcbKSkp1hXthS7WTwcOHDBuueUWo0KFCkZAQIBRt25d4+mnnzZOnTplbeFe6KGHHjJq1qxp+Pv7G5UrVzY6dOhgLFmyxPE43yfXcKF+4vsEV2czDMO4mn8QAAAAAAAAhXEOOgAAAAAALoCADgAAAACACyCgAwAAAADgAgjoAAAAAAC4AAI6AAAAAAAugIAOAAAAAIALIKADAAAAAOACCOgAAI/Qv39/devWzeoyvFK7du00fPhwq8u46tq1ayebzSabzaZNmzZd9dfft2+f4/WbN29+1V8fAHDlEdABACXmCiG4IJRcyUA0Y8YM3XzzzcU+npOTozfeeEPNmjVTcHCwKlWqpJtuuknTp0+X3W6/YnX8Vd9//73at2+vChUqKDg4WNHR0erXr59ycnKuyPFXrlwpm82mkydPOu2fM2eOXn755SvyGiURFxcnX19f/fTTT1ftNYszaNAgpaSkqHHjxo59TzzxhFq2bKmAgIALBufvv/9eUVFRl/3aUVFRSklJ0T/+8Y/LPgYAwLUQ0AEAXm/evHnq2rVrkY/l5OQoLi5Or732mh5++GGtWbNG69at0+DBgzVx4kRt27at2OddTb/88ovi4+PVqlUr/fDDD/r55581ceJE+fv7Ky8vr1Rfu0KFCipbtmypvkaBAwcOaM2aNRoyZIimTZt20fal3Q/BwcGKjIxUmTJlnPY/9NBD6tWr1wWfO2/ePN15552X/dq+vr6KjIxUaGjoZR8DAOBaCOgAgCtm69atuu222xQaGqqIiAg9+OCDOnbsmOPxdu3a6YknntA///lPVahQQZGRkXrxxRedjrFjxw7dfPPNCgwMVMOGDbV06VLZbDbNnTtXknTttddKklq0aCGbzaZ27do5Pf+tt95S1apVVbFiRQ0ePPiiI9xZWVlasmRJsQF9/Pjx+uGHH7Rs2TINHjxYzZs3V+3atXX//fdr7dq1io6Odry3IUOGaPjw4apUqZLi4uIkmaOkrVu3VkBAgKpWrapnnnlGubm5juN/+eWXatKkiYKCglSxYkV17NhRp0+flmSOWLdu3VohISEKDw/XTTfdpP379xdZ55IlSxQZGak33nhDjRs3Vp06dRQfH68PPvhAQUFBjnb//e9/9be//U1BQUGKiorSE0884Xg9ScrOztaIESMUFRWlgIAA1a1bVx999JH27dunW2+9VZJUvnx52Ww29e/f3/Hez53i/scff6hv374qX768goODddttt2nXrl2Oxz/++GOFh4fru+++U4MGDRQaGqr4+HilpKRcsK8kafr06brjjjv02GOP6bPPPtOZM2ecHi+uHy72u7l48WLdfPPNCg8PV8WKFXXHHXdoz549F62nKO+8844GDx6s2rVrX7DdN9984/i9a9eunYYOHarhw4erfPnyioiI0AcffKDTp09rwIABKlu2rOrWratFixZdVk0AAPdAQAcAXBEnT55U+/bt1aJFC61fv16LFy9WWlqaevbs6dRuxowZCgkJ0dq1a/XGG2/oX//6lxITEyVJeXl56tatm4KDg7V27VpNnTpVzz33nNPz161bJ0launSpUlJSNGfOHMdjK1as0J49e7RixQrNmDFDH3/8sT7++OML1r1s2TJVr15d9evXL/LxTz/9VB07dlSLFi0KPebn56eQkBCn9+bv76/Vq1drypQpOnTokG6//XbdcMMN2rx5s9577z199NFHeuWVVyRJKSkp6t27tx566CFt375dK1eu1D333CPDMJSbm6tu3bqpbdu22rJli5KSkvTwww/LZrMVWWdkZKRSUlL0ww8/FPte9+zZo/j4eHXv3l1btmzR559/rv/+978aMmSIo03fvn312Wef6Z133tH27dv1/vvvKzQ0VFFRUfrqq68kSTt37lRKSoomTJhQ5Ov0799f69ev1zfffKOkpCQZhqHbb7/d6Y8lmZmZeuutt/R///d/+uGHH3TgwAE99dRTxdYuSYZhaPr06XrggQdUv3591a1bV19++WWhduf3Q0l+N0+fPq2EhAStX79ey5Ytk4+Pj+6++27l5+dfsKbLtW3bNh05ckTt27d3qrtSpUpat26dhg4dqscee0w9evRQmzZtlJycrM6dO+vBBx9UZmZmqdQEAHABBgAAJdSvXz/jrrvuKvKxl19+2ejcubPTvoMHDxqSjJ07dxqGYRht27Y1br75Zqc2N9xwgzFixAjDMAxj0aJFRpkyZYyUlBTH44mJiYYk4+uvvzYMwzD27t1rSDI2btxYqLaaNWsaubm5jn09evQwevXqdcH3NGjQIOOpp54q9vGgoCDjiSeeuOAxCt5bixYtnPY9++yzRr169Yz8/HzHvsmTJxuhoaFGXl6esWHDBkOSsW/fvkLHO378uCHJWLly5UVf2zAMIzc31+jfv78hyYiMjDS6detmTJw40Th16pSjzcCBA42HH37Y6XmrVq0yfHx8jDNnzhg7d+40JBmJiYlFvsaKFSsMScYff/xR6L0PGzbMMAzD+PXXXw1JxurVqx2PHzt2zAgKCjK++OILwzAMY/r06YYkY/fu3U6fS0RExAXf45IlS4zKlSsbdrvdMAzDePvtt422bdsWquX8fijJ7+b5jh49akgyfv7552LrOfd9F2X06NFGs2bNinzs3//+t3Hvvfc6Hevc70Zubq4REhJiPPjgg459KSkphiQjKSmpxK8DAHAvjKADAK6IzZs3a8WKFQoNDXXcCkalz50q3LRpU6fnVa1aVUeOHJFkjsxGRUUpMjLS8Xjr1q1LXEOjRo3k6+tb5LGLYhiGvv3222Kntxe0KamWLVs6/bx9+3bFxsY6jXrfdNNNysjI0O+//65mzZqpQ4cOatKkiXr06KEPPvhAf/zxhyTzvO7+/fsrLi5Od955pyZMmHDBKeC+vr6aPn26fv/9d73xxhuqXr26Xn31VTVq1MjxvM2bN+vjjz926qO4uDjl5+dr79692rRpk3x9fdW2bdsSv+fzbd++XWXKlFFMTIxjX8WKFVWvXj1t377dsS84OFh16tRx/HyxvpKkadOmqVevXo7zvXv37q3Vq1cXmop+fj+U5Hdz165d6t27t2rXrq2wsDDVqlVLknnOe2koat2Dc78bvr6+qlixopo0aeLYFxERIUkX/ZwAAO6LgA4AuCIyMjJ05513atOmTU63Xbt26ZZbbnG08/Pzc3qezWa7YtOIL/XY69atU25urtq0aVNsm+uuu047duwo0eufO929JHx9fZWYmKhFixapYcOGmjhxourVq6e9e/dKMs+3TkpKUps2bfT555/ruuuu048//njBY1avXl0PPvigJk2apG3btikrK0tTpkyRZPbRI4884tQ/mzdv1q5du1SnTh2nc9VLW1F9daE/hpw4cUJff/213n33XZUpU0ZlypRR9erVlZubW2ixuPP7oSS/m3feeadOnDihDz74QGvXrtXatWsllc4icykpKdq4caO6dOnitL+oz+TcfQV/6CmtafcAAOsR0AEAV8T111+vbdu2qVatWqpbt67TraTBtV69ejp48KDS0tIc+86/lJa/v78kXZGVyefNm6cuXbo4jbqf7/7779fSpUu1cePGQo/Z7XanBdbO16BBA8c52AVWr16tsmXL6pprrpFkhq6bbrpJL730kjZu3Ch/f399/fXXjvYtWrTQyJEjtWbNGjVu3FgzZ84s8fsrX768qlat6qjx+uuv1y+//FKof+rWrSt/f381adJE+fn5+v7774s8Xkk++wYNGig3N9cRcCXp+PHj2rlzpxo2bFji2s/36aef6pprrtHmzZudQvbYsWP18ccfX7Cmi/1uFtT3/PPPq0OHDmrQoIFjJkNp+Pbbb9WmTRtVqFCh1F4DAOCeCOgAgEty6tSpQiORBw8e1ODBg3XixAn17t1bP/30k/bs2aPvvvtOAwYMKHGY7tSpk+rUqaN+/fppy5YtWr16tZ5//nlJZ0cPq1SpoqCgIMdCX6dOnbrs93LuKtrFGT58uG666SZ16NBBkydP1ubNm/Xbb7/piy++0I033ui0Ovn5Hn/8cR08eFBDhw7Vjh07NG/ePI0ePVoJCQny8fHR2rVr9eqrr2r9+vU6cOCA5syZo6NHj6pBgwbau3evRo4cqaSkJO3fv19LlizRrl271KBBgyJf6/3339djjz2mJUuWaM+ePdq2bZtGjBihbdu2OS7lNWLECMclygpGkOfNm+dYJK5WrVrq16+fHnroIc2dO1d79+7VypUr9cUXX0iSatasKZvNpvnz5+vo0aPKyMgoVEd0dLTuuusuDRo0SP/973+1efNmPfDAA6pevbruuuuuEvVLUT766CPde++9aty4sdNt4MCBOnbsmBYvXlzscy/2u1m+fHlVrFhRU6dO1e7du7V8+XIlJCRcdq27d+/Wpk2blJqaqjNnzji+JwWj8SX5vQMAeCcCOgDgkqxcuVItWrRwur300kuqVq2aVq9erby8PHXu3FlNmjTR8OHDFR4eLh+fkv3nxtfXV3PnzlVGRoZuuOEG/f3vf3es4h4YGChJKlOmjN555x29//77qlat2mWHvv9v7w5aotwCOA7/bxshhlwoBFkuJVAqCaWoULBN0c6+QWVSILiRAgmDCCKMaKG4EMFVK3U1G3VREEQgJEGEGIiQn8BwI3gXF4YrJbd771AHep7tzDnnXcwsfnPe98znz5+zvr5e+xuugzQ0NGRxcTEjIyOZmprKuXPn0tXVlRcvXmRoaCgdHR0Hjm1paUm1Ws27d+9y+vTpDA4O5saNG7UfHY4cOZLXr1/n6tWraWtry+joaMbHx3PlypUcPnw4nz59Sn9/f9ra2jIwMJC7d+/m9u3b312ru7s729vbGRwcTHt7e3p6evL27dssLCzUnik/depUXr16lbW1tVy6dCmdnZ158OBBjh07VptncnIy169fz507d3Ly5MncunWrtgPf0tKShw8f5t69ezl69Oi+09//bmZmJmfPns21a9dy/vz57O3tpVqtfnML949aWVnJ6upq+vv7v3mtsbExfX19mZ6ePnD8P302Dx06lJcvX2ZlZSUdHR0ZHh7O06dP/9O1JsnNmzfT2dmZqamprK2t1b4nW1tb+fr1a5aXlwU6AN/1x96/Of0GAH6yN2/e5OLFi1lfX993qNj/9ezZsywtLaVardZtTn4vvb29OXPmTJ4/f/7DY+bm5jI6OpqPHz/W7TrGxsaysLCQ9+/f121OAH4NO+gAFGV+fj6Li4vZ2NjI0tJSBgYGcuHChbrGeZIcP3489+/fr+uc/H4mJiZSqVTy4cOHH3p/pVLJkydP6rL25uZmKpVKHj9+XJf5APj17KADUJTZ2dk8evQom5ubaW5uzuXLlzM+Pp6mpqZffWmwz5cvX7Kzs5MkaW1trR2i97Ps7u5mY2MjyV+PYpw4ceKnrg9A/Ql0AAAAKIBb3AEAAKAAAh0AAAAKINABAACgAAIdAAAACiDQAQAAoAACHQAAAAog0AEAAKAAAh0AAAAKINABAACgAAIdAAAACiDQAQAAoAACHQAAAAog0AEAAKAAAh0AAAAKINABAACgAAIdAAAACiDQAQAAoAACHQAAAAog0AEAAKAAAh0AAAAKINABAACgAAIdAAAACvAncEuKh1xIYLwAAAAASUVORK5CYII=;" vertex="1" parent="1">
          <mxGeometry width="683.33" height="410" as="geometry" />
        </mxCell>
      </root>
    </mxGraphModel>
  </diagram>
</mxfile>
